<?xml version="1.0" encoding="UTF-8" ?>
<!DOCTYPE svg PUBLIC "-//W3C//DTD SVG 1.1//EN" "http://www.w3.org/Graphics/SVG/1.1/DTD/svg11.dtd">
<svg width="1000pt" height="1000pt" viewBox="0 0 1000 1000" version="1.1" xmlns="http://www.w3.org/2000/svg">
<g id="#fbec27ff">
<path fill="#fbec27" opacity="1.00" d=" M 477.03 10.16 C 537.18 7.59 597.86 15.48 655.02 34.64 C 730.61 59.61 799.73 103.65 854.68 161.23 C 903.33 212.10 940.96 273.52 963.82 340.11 C 997.03 435.99 999.19 542.11 970.50 639.38 C 947.88 716.30 905.89 787.41 849.50 844.39 C 793.87 901.00 724.22 943.75 648.50 967.56 C 544.40 1000.56 429.33 997.61 327.17 958.89 C 260.80 933.91 200.04 894.22 150.41 843.59 C 94.56 786.92 52.83 716.42 30.20 640.13 C 12.53 580.66 6.27 517.83 11.89 456.08 C 17.38 392.91 35.56 330.87 64.81 274.62 C 96.03 214.52 139.81 160.98 192.54 118.49 C 253.31 69.22 326.07 34.84 402.78 19.44 C 427.24 14.36 452.11 11.57 477.03 10.16 M 457.00 27.80 C 356.54 36.63 259.38 79.00 184.54 146.57 C 177.80 152.12 172.04 158.73 165.30 164.27 C 159.14 171.74 151.71 178.06 145.63 185.61 C 81.12 257.56 39.83 349.93 29.12 445.97 C 28.09 455.31 26.99 464.67 26.92 474.08 C 25.51 487.01 26.12 500.04 26.07 513.01 C 26.97 534.45 28.64 555.90 32.27 577.08 C 39.24 620.53 52.66 662.88 71.37 702.69 C 71.87 703.50 72.40 704.30 72.97 705.08 C 85.91 732.81 102.16 759.01 120.39 783.60 C 162.87 840.54 218.35 887.67 281.36 920.48 C 336.67 949.40 397.82 967.06 460.02 972.22 C 513.22 976.69 567.20 972.26 618.91 958.92 C 698.09 938.65 771.64 897.15 830.22 840.19 C 886.33 785.91 928.71 717.53 952.17 643.06 C 968.92 590.22 976.07 534.39 973.60 479.03 C 970.84 412.30 953.59 346.22 923.36 286.67 C 891.06 222.72 844.07 166.25 787.01 122.93 C 775.74 114.48 764.35 106.10 752.22 98.91 C 744.24 92.93 735.19 88.53 726.62 83.47 C 670.05 52.66 607.17 33.50 543.00 27.79 C 536.37 26.82 529.66 27.17 523.03 26.22 C 508.02 25.85 493.00 25.91 477.99 26.18 C 471.00 26.93 463.98 26.99 457.00 27.80 Z" />
</g>
<g id="#fbce37ff">
<path fill="#fbce37" opacity="1.00" d=" M 457.00 27.80 C 463.98 26.99 471.00 26.93 477.99 26.18 C 493.00 25.91 508.02 25.85 523.03 26.22 C 529.66 27.17 536.37 26.82 543.00 27.79 C 607.17 33.50 670.05 52.66 726.62 83.47 C 735.19 88.53 744.24 92.93 752.22 98.91 C 742.77 99.04 733.40 97.43 723.94 97.83 C 713.01 97.06 702.05 96.81 691.11 97.37 C 682.29 98.29 673.40 97.46 664.61 98.51 C 637.20 100.13 609.89 103.61 582.94 108.86 C 571.78 111.34 560.33 112.90 549.55 116.79 C 493.27 109.83 435.34 114.66 381.39 132.36 C 345.19 143.84 310.90 161.05 279.71 182.66 C 264.69 193.47 249.87 204.70 236.65 217.69 C 230.39 223.07 224.46 228.85 219.04 235.08 C 165.62 291.43 129.77 364.34 118.45 441.20 C 118.28 440.41 117.92 438.83 117.75 438.04 C 104.88 457.04 94.26 477.54 85.92 498.90 C 73.66 530.98 67.18 565.12 65.43 599.37 C 63.42 634.75 66.94 670.22 72.97 705.08 C 72.40 704.30 71.87 703.50 71.37 702.69 C 52.66 662.88 39.24 620.53 32.27 577.08 C 28.64 555.90 26.97 534.45 26.07 513.01 C 26.12 500.04 25.51 487.01 26.92 474.08 C 26.99 464.67 28.09 455.31 29.12 445.97 C 39.83 349.93 81.12 257.56 145.63 185.61 C 151.71 178.06 159.14 171.74 165.30 164.27 C 172.04 158.73 177.80 152.12 184.54 146.57 C 259.38 79.00 356.54 36.63 457.00 27.80 Z" />
</g>
<g id="#fbba2dff">
<path fill="#fbba2d" opacity="1.00" d=" M 664.61 98.51 C 673.40 97.46 682.29 98.29 691.11 97.37 C 702.05 96.81 713.01 97.06 723.94 97.83 C 733.40 97.43 742.77 99.04 752.22 98.91 C 764.35 106.10 775.74 114.48 787.01 122.93 C 844.07 166.25 891.06 222.72 923.36 286.67 C 953.59 346.22 970.84 412.30 973.60 479.03 C 976.07 534.39 968.92 590.22 952.17 643.06 C 928.71 717.53 886.33 785.91 830.22 840.19 C 771.64 897.15 698.09 938.65 618.91 958.92 C 567.20 972.26 513.22 976.69 460.02 972.22 C 397.82 967.06 336.67 949.40 281.36 920.48 C 218.35 887.67 162.87 840.54 120.39 783.60 C 102.16 759.01 85.91 732.81 72.97 705.08 C 66.94 670.22 63.42 634.75 65.43 599.37 C 67.18 565.12 73.66 530.98 85.92 498.90 C 94.26 477.54 104.88 457.04 117.75 438.04 C 117.92 438.83 118.28 440.41 118.45 441.20 C 104.58 529.52 122.64 622.51 168.90 699.05 C 206.31 761.67 261.81 813.32 326.99 846.07 C 398.90 882.56 482.46 895.12 561.99 882.16 C 643.27 869.30 719.90 829.19 776.90 769.87 C 813.12 732.98 841.54 688.49 860.29 640.34 C 884.41 578.63 891.89 510.69 882.64 445.14 C 873.18 377.82 845.37 313.21 803.02 260.04 C 758.56 203.82 698.17 160.35 630.64 136.27 C 604.43 126.85 577.17 120.36 549.55 116.79 C 560.33 112.90 571.78 111.34 582.94 108.86 C 609.89 103.61 637.20 100.13 664.61 98.51 Z" />
</g>
<g id="#fbee3dff">
<path fill="#fbee3d" opacity="1.00" d=" M 381.39 132.36 C 435.34 114.66 493.27 109.83 549.55 116.79 C 577.17 120.36 604.43 126.85 630.64 136.27 C 698.17 160.35 758.56 203.82 803.02 260.04 C 845.37 313.21 873.18 377.82 882.64 445.14 C 891.89 510.69 884.41 578.63 860.29 640.34 C 841.54 688.49 813.12 732.98 776.90 769.87 C 719.90 829.19 643.27 869.30 561.99 882.16 C 482.46 895.12 398.90 882.56 326.99 846.07 C 261.81 813.32 206.31 761.67 168.90 699.05 C 122.64 622.51 104.58 529.52 118.45 441.20 C 129.77 364.34 165.62 291.43 219.04 235.08 C 224.46 228.85 230.39 223.07 236.65 217.69 C 249.87 204.70 264.69 193.47 279.71 182.66 C 310.90 161.05 345.19 143.84 381.39 132.36 M 488.29 121.37 C 456.41 122.34 424.64 127.31 394.01 136.22 C 334.45 153.46 279.34 185.70 235.00 229.03 C 190.98 271.82 157.48 325.46 138.73 383.96 C 119.62 442.86 115.62 506.51 126.51 567.43 C 139.36 640.29 174.48 708.93 225.68 762.29 C 274.37 813.40 337.59 850.57 406.06 867.88 C 473.91 885.24 546.55 883.38 613.41 862.51 C 666.06 846.09 715.02 817.98 755.77 780.81 C 795.71 744.52 827.80 699.62 849.10 650.03 C 876.14 587.54 885.46 517.67 876.61 450.21 C 867.51 380.03 837.90 312.75 792.58 258.43 C 747.31 203.80 686.46 162.18 618.99 140.14 C 576.98 126.21 532.50 120.02 488.29 121.37 Z" />
</g>
<g id="#dc9d3bff">
<path fill="#dc9d3b" opacity="1.00" d=" M 488.29 121.37 C 532.50 120.02 576.98 126.21 618.99 140.14 C 686.46 162.18 747.31 203.80 792.58 258.43 C 837.90 312.75 867.51 380.03 876.61 450.21 C 885.46 517.67 876.14 587.54 849.10 650.03 C 827.80 699.62 795.71 744.52 755.77 780.81 C 715.02 817.98 666.06 846.09 613.41 862.51 C 546.55 883.38 473.91 885.24 406.06 867.88 C 337.59 850.57 274.37 813.40 225.68 762.29 C 174.48 708.93 139.36 640.29 126.51 567.43 C 115.62 506.51 119.62 442.86 138.73 383.96 C 157.48 325.46 190.98 271.82 235.00 229.03 C 279.34 185.70 334.45 153.46 394.01 136.22 C 424.64 127.31 456.41 122.34 488.29 121.37 M 480.01 192.82 C 473.23 193.58 466.28 193.41 459.67 195.24 C 458.33 195.10 456.99 195.29 455.68 195.45 C 438.07 198.05 420.64 202.02 403.75 207.66 C 400.77 208.50 398.80 212.04 400.00 214.96 C 406.23 230.51 411.80 246.93 411.28 263.89 C 411.01 269.30 409.27 276.92 402.74 277.54 C 397.06 277.24 392.55 273.16 388.64 269.42 C 377.91 258.37 370.73 244.51 364.44 230.60 C 363.40 227.86 360.09 226.41 357.36 227.41 C 354.14 228.67 351.21 230.56 348.18 232.22 C 297.19 261.07 254.75 304.77 227.45 356.60 C 226.05 359.52 223.34 362.67 224.75 366.08 C 225.91 369.10 229.32 369.87 231.97 371.08 C 243.77 376.29 255.33 382.43 265.15 390.89 C 269.39 394.73 273.74 399.02 275.37 404.68 C 276.39 408.07 274.32 411.73 271.24 413.23 C 265.36 416.26 258.49 415.82 252.08 415.46 C 239.38 414.06 226.97 410.58 215.11 405.88 C 213.04 405.04 210.65 404.37 208.58 405.59 C 205.55 406.90 205.38 410.65 204.39 413.36 C 187.48 471.03 187.89 533.64 205.69 591.05 C 206.79 594.06 207.05 598.08 210.25 599.69 C 213.26 601.36 216.45 599.29 219.28 598.26 C 231.66 593.29 244.69 589.57 258.05 588.70 C 262.87 588.51 267.91 588.71 272.38 590.71 C 275.52 592.08 278.02 595.43 277.13 598.99 C 275.82 604.55 271.71 608.88 267.76 612.76 C 256.89 622.61 243.78 629.63 230.42 635.48 C 227.31 636.64 225.66 640.70 227.47 643.60 C 257.03 699.75 304.40 746.33 361.08 774.86 C 363.95 776.64 367.95 775.08 369.13 771.99 C 375.39 757.31 382.73 742.60 394.15 731.20 C 397.98 727.75 402.74 723.51 408.30 724.60 C 413.76 726.43 415.04 732.97 415.41 738.01 C 416.17 754.59 411.14 770.79 405.26 786.10 C 403.70 789.19 405.45 793.33 408.87 794.15 C 424.00 798.92 439.56 802.31 455.25 804.65 C 456.93 804.84 458.64 805.23 460.33 804.90 C 460.99 805.11 462.31 805.54 462.98 805.75 C 507.77 811.15 553.76 806.71 596.61 792.51 C 599.80 791.31 601.38 787.32 599.75 784.28 C 595.56 774.50 592.54 764.28 590.14 753.92 C 588.89 745.74 587.50 737.13 590.07 729.06 C 591.15 725.28 594.83 721.78 599.01 722.83 C 605.92 724.45 610.71 730.08 615.38 735.00 C 623.32 745.46 630.01 756.83 635.11 768.94 C 636.13 772.11 639.75 774.13 642.94 772.84 C 697.95 744.25 743.74 698.42 772.66 643.60 C 774.08 640.58 776.80 637.29 775.29 633.81 C 772.42 629.42 766.64 628.89 762.36 626.47 C 749.97 620.35 737.47 613.30 728.50 602.55 C 725.75 599.08 722.78 593.95 725.70 589.72 C 729.02 585.41 735.03 584.90 740.06 584.61 C 754.13 584.37 767.90 588.27 781.07 592.91 C 784.44 593.99 788.14 596.63 791.69 594.62 C 794.63 592.80 794.98 589.00 795.95 585.99 C 812.75 528.17 812.05 465.41 794.07 407.94 C 793.14 405.18 792.64 401.67 789.67 400.33 C 787.76 399.20 785.55 399.94 783.68 400.69 C 770.95 405.85 757.64 410.00 743.90 411.22 C 738.48 411.58 732.78 411.59 727.71 409.40 C 724.50 408.05 722.09 404.45 723.01 400.93 C 724.42 395.46 728.43 391.13 732.44 387.35 C 742.00 378.72 753.32 372.27 764.98 366.91 C 767.67 365.46 771.25 364.76 772.77 361.83 C 774.56 358.01 771.39 354.54 769.79 351.31 C 740.10 297.43 693.85 252.88 638.93 225.19 C 635.78 223.42 631.65 225.31 630.57 228.66 C 625.64 240.64 619.41 252.10 611.72 262.53 C 607.08 267.86 602.16 273.86 595.01 275.67 C 590.29 276.87 586.63 272.45 585.63 268.32 C 583.46 260.08 584.68 251.45 585.97 243.17 C 588.03 234.52 590.16 225.84 593.55 217.58 C 594.52 214.87 596.13 211.89 594.87 209.00 C 594.09 207.10 592.14 206.16 590.30 205.62 C 554.70 194.78 517.14 190.42 480.01 192.82 Z" />
<path fill="#dc9d3b" opacity="1.00" d=" M 499.26 220.39 C 501.49 220.04 503.59 221.40 505.03 222.99 C 508.31 226.62 509.95 231.36 511.31 235.97 C 515.27 250.14 515.57 265.07 514.36 279.65 C 513.27 288.21 511.76 296.94 507.72 304.67 C 506.07 307.63 503.68 311.06 499.94 311.15 C 496.26 310.97 493.94 307.59 492.30 304.69 C 488.33 297.13 486.81 288.59 485.70 280.21 C 484.30 264.79 484.71 248.94 489.26 234.03 C 491.15 228.80 493.34 222.14 499.26 220.39 Z" />
<path fill="#dc9d3b" opacity="1.00" d=" M 303.27 301.36 C 307.76 299.41 312.67 301.48 316.90 303.17 C 327.30 308.07 336.32 315.47 344.51 323.46 C 352.20 331.28 359.38 339.81 364.41 349.62 C 366.53 354.05 368.68 358.95 367.76 363.98 C 366.97 367.35 363.07 368.75 359.95 368.12 C 352.33 367.01 345.68 362.75 339.44 358.51 C 327.96 350.19 317.80 339.99 309.57 328.44 C 305.64 322.59 301.79 316.37 300.50 309.34 C 299.98 306.49 300.40 302.83 303.27 301.36 Z" />
<path fill="#dc9d3b" opacity="1.00" d=" M 687.58 301.57 C 690.83 300.65 694.90 299.82 697.76 302.18 C 700.65 305.19 699.63 309.78 698.44 313.31 C 694.53 323.99 687.33 333.03 679.86 341.45 C 674.25 347.34 668.26 352.90 661.67 357.70 C 655.11 362.31 648.08 366.93 639.99 368.14 C 636.87 368.73 632.93 367.25 632.21 363.88 C 631.32 358.09 634.04 352.56 636.64 347.57 C 643.46 335.65 652.82 325.31 663.21 316.39 C 670.64 310.45 678.45 304.62 687.58 301.57 Z" />
<path fill="#dc9d3b" opacity="1.00" d=" M 488.40 332.58 C 526.18 329.98 564.72 340.51 595.73 362.28 C 624.37 382.12 646.60 411.07 658.26 443.91 C 671.58 481.09 671.19 523.05 656.90 559.90 C 644.96 591.22 623.33 618.72 595.81 637.83 C 567.94 657.31 534.00 668.13 499.96 667.86 C 460.19 668.21 420.68 653.25 390.62 627.31 C 365.74 605.98 347.25 577.26 338.36 545.69 C 327.20 506.61 330.93 463.44 348.89 426.96 C 363.15 397.39 386.40 372.29 414.65 355.60 C 437.00 342.29 462.48 334.48 488.40 332.58 M 488.42 395.38 C 483.52 404.41 477.82 412.96 471.89 421.34 C 451.40 449.32 424.61 472.60 394.18 489.21 C 386.04 493.42 385.95 506.54 394.03 510.86 C 424.50 527.50 451.34 550.78 471.88 578.79 C 477.76 587.15 483.47 595.66 488.35 604.66 C 489.86 607.69 492.39 610.26 495.64 611.39 C 501.40 613.69 508.50 610.86 511.26 605.34 C 532.59 566.35 565.12 533.58 604.02 512.08 C 606.78 510.63 609.46 508.70 610.81 505.79 C 613.92 499.80 611.35 491.72 605.25 488.77 C 565.80 467.24 532.76 434.20 511.22 394.75 C 508.78 389.97 503.18 387.24 497.91 388.21 C 493.74 388.73 490.26 391.69 488.42 395.38 Z" />
<path fill="#dc9d3b" opacity="1.00" d=" M 499.25 479.29 C 500.86 478.54 501.95 480.21 502.61 481.41 C 506.32 487.81 511.65 493.27 518.02 497.05 C 519.14 497.88 520.86 498.43 521.07 500.05 C 520.97 501.67 519.22 502.24 518.11 503.06 C 511.96 506.68 506.76 511.86 503.10 517.99 C 502.25 519.16 501.69 520.87 500.05 521.11 C 498.34 520.97 497.77 519.20 496.92 518.02 C 493.15 511.67 487.69 506.39 481.31 502.69 C 480.47 501.95 478.63 501.44 479.05 500.00 C 478.86 498.59 480.55 498.15 481.40 497.42 C 487.79 493.68 493.28 488.36 497.04 481.96 C 497.75 481.07 498.10 479.71 499.25 479.29 Z" />
<path fill="#dc9d3b" opacity="1.00" d=" M 255.28 485.45 C 271.19 484.58 287.76 485.15 302.64 491.44 C 306.43 493.25 311.43 496.13 310.84 501.04 C 309.84 504.90 306.03 507.08 302.67 508.69 C 291.50 513.68 279.08 514.72 267.00 515.14 C 255.17 515.07 243.14 514.09 231.89 510.18 C 227.50 508.42 222.35 506.40 220.32 501.76 C 219.00 497.47 223.09 494.28 226.37 492.46 C 235.26 487.80 245.41 486.36 255.28 485.45 Z" />
<path fill="#dc9d3b" opacity="1.00" d=" M 696.03 492.10 C 704.66 487.84 714.35 486.41 723.83 485.42 C 740.35 484.85 757.65 485.04 772.94 492.13 C 776.67 493.88 781.20 497.71 779.36 502.33 C 776.63 507.19 770.83 509.11 765.87 510.85 C 752.27 514.93 737.87 515.60 723.78 514.66 C 714.04 513.81 704.08 512.26 695.33 507.68 C 692.25 505.94 688.53 503.14 689.17 499.13 C 689.92 495.70 693.18 493.67 696.03 492.10 Z" />
<path fill="#dc9d3b" opacity="1.00" d=" M 357.39 632.47 C 360.31 631.92 363.90 631.47 366.28 633.69 C 368.64 636.26 368.23 640.11 367.37 643.23 C 365.15 650.33 361.16 656.74 356.75 662.68 C 348.42 673.63 338.45 683.38 327.10 691.19 C 321.20 694.96 314.95 698.78 307.86 699.64 C 304.75 700.07 301.01 698.30 300.56 694.93 C 299.76 688.72 302.91 682.92 305.78 677.65 C 313.18 665.20 323.28 654.51 334.47 645.42 C 341.38 639.99 348.87 634.93 357.39 632.47 Z" />
<path fill="#dc9d3b" opacity="1.00" d=" M 636.25 632.30 C 641.20 631.28 646.04 633.39 650.39 635.53 C 661.57 641.23 671.19 649.57 679.77 658.65 C 686.97 666.89 694.12 675.54 698.11 685.86 C 699.20 689.27 700.62 693.28 698.76 696.69 C 697.03 699.63 693.04 699.96 690.03 699.21 C 679.77 696.86 671.32 690.12 663.19 683.79 C 653.48 675.48 644.76 665.88 638.04 654.98 C 635.10 649.74 631.87 644.14 632.03 637.95 C 632.01 635.41 633.66 632.80 636.25 632.30 Z" />
<path fill="#dc9d3b" opacity="1.00" d=" M 498.25 689.35 C 500.56 688.50 503.07 689.56 504.66 691.29 C 507.97 694.81 509.70 699.45 511.13 703.98 C 515.15 717.49 515.43 731.77 514.56 745.73 C 513.81 753.85 512.49 762.02 509.50 769.64 C 508.13 772.93 506.40 776.25 503.60 778.56 C 501.40 780.41 497.92 780.16 495.92 778.14 C 491.88 774.32 490.05 768.85 488.50 763.67 C 485.53 752.73 484.78 741.30 485.11 730.00 C 485.28 719.61 486.80 709.13 490.46 699.37 C 492.11 695.49 494.21 691.16 498.25 689.35 Z" />
</g>
<g id="#fec120ff">
<path fill="#fec120" opacity="1.00" d=" M 480.01 192.82 C 517.14 190.42 554.70 194.78 590.30 205.62 C 592.14 206.16 594.09 207.10 594.87 209.00 C 596.13 211.89 594.52 214.87 593.55 217.58 C 590.16 225.84 588.03 234.52 585.97 243.17 C 569.36 232.89 552.32 223.15 534.14 215.87 C 510.34 205.78 485.17 199.24 459.67 195.24 C 466.28 193.41 473.23 193.58 480.01 192.82 Z" />
<path fill="#fec120" opacity="1.00" d=" M 630.57 228.66 C 631.65 225.31 635.78 223.42 638.93 225.19 C 693.85 252.88 740.10 297.43 769.79 351.31 C 771.39 354.54 774.56 358.01 772.77 361.83 C 771.25 364.76 767.67 365.46 764.98 366.91 C 753.32 372.27 742.00 378.72 732.44 387.35 C 728.43 391.13 724.42 395.46 723.01 400.93 C 722.09 404.45 724.50 408.05 727.71 409.40 C 732.78 411.59 738.48 411.58 743.90 411.22 C 757.64 410.00 770.95 405.85 783.68 400.69 C 785.55 399.94 787.76 399.20 789.67 400.33 C 792.64 401.67 793.14 405.18 794.07 407.94 C 812.05 465.41 812.75 528.17 795.95 585.99 C 794.98 589.00 794.63 592.80 791.69 594.62 C 788.14 596.63 784.44 593.99 781.07 592.91 C 767.90 588.27 754.13 584.37 740.06 584.61 C 735.03 584.90 729.02 585.41 725.70 589.72 C 722.78 593.95 725.75 599.08 728.50 602.55 C 737.47 613.30 749.97 620.35 762.36 626.47 C 766.64 628.89 772.42 629.42 775.29 633.81 C 776.80 637.29 774.08 640.58 772.66 643.60 C 743.74 698.42 697.95 744.25 642.94 772.84 C 639.75 774.13 636.13 772.11 635.11 768.94 C 630.01 756.83 623.32 745.46 615.38 735.00 C 619.94 730.33 625.04 726.25 629.70 721.69 C 641.83 709.95 652.97 697.21 663.19 683.79 C 671.32 690.12 679.77 696.86 690.03 699.21 C 693.04 699.96 697.03 699.63 698.76 696.69 C 700.62 693.28 699.20 689.27 698.11 685.86 C 694.12 675.54 686.97 666.89 679.77 658.65 C 693.88 636.10 704.30 611.33 711.85 585.86 C 718.64 562.70 722.31 538.72 723.78 514.66 C 737.87 515.60 752.27 514.93 765.87 510.85 C 770.83 509.11 776.63 507.19 779.36 502.33 C 781.20 497.71 776.67 493.88 772.94 492.13 C 757.65 485.04 740.35 484.85 723.83 485.42 C 722.88 475.61 722.36 465.75 720.79 456.01 C 715.03 415.60 701.03 376.36 679.86 341.45 C 687.33 333.03 694.53 323.99 698.44 313.31 C 699.63 309.78 700.65 305.19 697.76 302.18 C 694.90 299.82 690.83 300.65 687.58 301.57 C 678.45 304.62 670.64 310.45 663.21 316.39 C 648.12 296.60 631.07 278.24 611.72 262.53 C 619.41 252.10 625.64 240.64 630.57 228.66 Z" />
<path fill="#fec120" opacity="1.00" d=" M 481.88 800.77 C 520.54 792.32 557.51 776.30 590.14 753.92 C 592.54 764.28 595.56 774.50 599.75 784.28 C 601.38 787.32 599.80 791.31 596.61 792.51 C 553.76 806.71 507.77 811.15 462.98 805.75 C 462.31 805.54 460.99 805.11 460.33 804.90 C 467.47 803.29 474.75 802.43 481.88 800.77 Z" />
</g>
<g id="#ffe032ff">
<path fill="#ffe032" opacity="1.00" d=" M 455.68 195.45 C 456.99 195.29 458.33 195.10 459.67 195.24 C 485.17 199.24 510.34 205.78 534.14 215.87 C 552.32 223.15 569.36 232.89 585.97 243.17 C 584.68 251.45 583.46 260.08 585.63 268.32 C 586.63 272.45 590.29 276.87 595.01 275.67 C 602.16 273.86 607.08 267.86 611.72 262.53 C 631.07 278.24 648.12 296.60 663.21 316.39 C 652.82 325.31 643.46 335.65 636.64 347.57 C 634.04 352.56 631.32 358.09 632.21 363.88 C 632.93 367.25 636.87 368.73 639.99 368.14 C 648.08 366.93 655.11 362.31 661.67 357.70 C 668.26 352.90 674.25 347.34 679.86 341.45 C 701.03 376.36 715.03 415.60 720.79 456.01 C 722.36 465.75 722.88 475.61 723.83 485.42 C 714.35 486.41 704.66 487.84 696.03 492.10 C 693.18 493.67 689.92 495.70 689.17 499.13 C 688.53 503.14 692.25 505.94 695.33 507.68 C 704.08 512.26 714.04 513.81 723.78 514.66 C 722.31 538.72 718.64 562.70 711.85 585.86 C 704.30 611.33 693.88 636.10 679.77 658.65 C 671.19 649.57 661.57 641.23 650.39 635.53 C 646.04 633.39 641.20 631.28 636.25 632.30 C 633.66 632.80 632.01 635.41 632.03 637.95 C 631.87 644.14 635.10 649.74 638.04 654.98 C 644.76 665.88 653.48 675.48 663.19 683.79 C 652.97 697.21 641.83 709.95 629.70 721.69 C 625.04 726.25 619.94 730.33 615.38 735.00 C 610.71 730.08 605.92 724.45 599.01 722.83 C 594.83 721.78 591.15 725.28 590.07 729.06 C 587.50 737.13 588.89 745.74 590.14 753.92 C 557.51 776.30 520.54 792.32 481.88 800.77 C 474.75 802.43 467.47 803.29 460.33 804.90 C 458.64 805.23 456.93 804.84 455.25 804.65 C 439.56 802.31 424.00 798.92 408.87 794.15 C 405.45 793.33 403.70 789.19 405.26 786.10 C 411.14 770.79 416.17 754.59 415.41 738.01 C 415.04 732.97 413.76 726.43 408.30 724.60 C 402.74 723.51 397.98 727.75 394.15 731.20 C 382.73 742.60 375.39 757.31 369.13 771.99 C 367.95 775.08 363.95 776.64 361.08 774.86 C 304.40 746.33 257.03 699.75 227.47 643.60 C 225.66 640.70 227.31 636.64 230.42 635.48 C 243.78 629.63 256.89 622.61 267.76 612.76 C 271.71 608.88 275.82 604.55 277.13 598.99 C 278.02 595.43 275.52 592.08 272.38 590.71 C 267.91 588.71 262.87 588.51 258.05 588.70 C 244.69 589.57 231.66 593.29 219.28 598.26 C 216.45 599.29 213.26 601.36 210.25 599.69 C 207.05 598.08 206.79 594.06 205.69 591.05 C 187.89 533.64 187.48 471.03 204.39 413.36 C 205.38 410.65 205.55 406.90 208.58 405.59 C 210.65 404.37 213.04 405.04 215.11 405.88 C 226.97 410.58 239.38 414.06 252.08 415.46 C 258.49 415.82 265.36 416.26 271.24 413.23 C 274.32 411.73 276.39 408.07 275.37 404.68 C 273.74 399.02 269.39 394.73 265.15 390.89 C 255.33 382.43 243.77 376.29 231.97 371.08 C 229.32 369.87 225.91 369.10 224.75 366.08 C 223.34 362.67 226.05 359.52 227.45 356.60 C 254.75 304.77 297.19 261.07 348.18 232.22 C 351.21 230.56 354.14 228.67 357.36 227.41 C 360.09 226.41 363.40 227.86 364.44 230.60 C 370.73 244.51 377.91 258.37 388.64 269.42 C 392.55 273.16 397.06 277.24 402.74 277.54 C 409.27 276.92 411.01 269.30 411.28 263.89 C 411.80 246.93 406.23 230.51 400.00 214.96 C 398.80 212.04 400.77 208.50 403.75 207.66 C 420.64 202.02 438.07 198.05 455.68 195.45 M 499.26 220.39 C 493.34 222.14 491.15 228.80 489.26 234.03 C 484.71 248.94 484.30 264.79 485.70 280.21 C 486.81 288.59 488.33 297.13 492.30 304.69 C 493.94 307.59 496.26 310.97 499.94 311.15 C 503.68 311.06 506.07 307.63 507.72 304.67 C 511.76 296.94 513.27 288.21 514.36 279.65 C 515.57 265.07 515.27 250.14 511.31 235.97 C 509.95 231.36 508.31 226.62 505.03 222.99 C 503.59 221.40 501.49 220.04 499.26 220.39 M 303.27 301.36 C 300.40 302.83 299.98 306.49 300.50 309.34 C 301.79 316.37 305.64 322.59 309.57 328.44 C 317.80 339.99 327.96 350.19 339.44 358.51 C 345.68 362.75 352.33 367.01 359.95 368.12 C 363.07 368.75 366.97 367.35 367.76 363.98 C 368.68 358.95 366.53 354.05 364.41 349.62 C 359.38 339.81 352.20 331.28 344.51 323.46 C 336.32 315.47 327.30 308.07 316.90 303.17 C 312.67 301.48 307.76 299.41 303.27 301.36 M 488.40 332.58 C 462.48 334.48 437.00 342.29 414.65 355.60 C 386.40 372.29 363.15 397.39 348.89 426.96 C 330.93 463.44 327.20 506.61 338.36 545.69 C 347.25 577.26 365.74 605.98 390.62 627.31 C 420.68 653.25 460.19 668.21 499.96 667.86 C 534.00 668.13 567.94 657.31 595.81 637.83 C 623.33 618.72 644.96 591.22 656.90 559.90 C 671.19 523.05 671.58 481.09 658.26 443.91 C 646.60 411.07 624.37 382.12 595.73 362.28 C 564.72 340.51 526.18 329.98 488.40 332.58 M 255.28 485.45 C 245.41 486.36 235.26 487.80 226.37 492.46 C 223.09 494.28 219.00 497.47 220.32 501.76 C 222.35 506.40 227.50 508.42 231.89 510.18 C 243.14 514.09 255.17 515.07 267.00 515.14 C 279.08 514.72 291.50 513.68 302.67 508.69 C 306.03 507.08 309.84 504.90 310.84 501.04 C 311.43 496.13 306.43 493.25 302.64 491.44 C 287.76 485.15 271.19 484.58 255.28 485.45 M 357.39 632.47 C 348.87 634.93 341.38 639.99 334.47 645.42 C 323.28 654.51 313.18 665.20 305.78 677.65 C 302.91 682.92 299.76 688.72 300.56 694.93 C 301.01 698.30 304.75 700.07 307.86 699.64 C 314.95 698.78 321.20 694.96 327.10 691.19 C 338.45 683.38 348.42 673.63 356.75 662.68 C 361.16 656.74 365.15 650.33 367.37 643.23 C 368.23 640.11 368.64 636.26 366.28 633.69 C 363.90 631.47 360.31 631.92 357.39 632.47 M 498.25 689.35 C 494.21 691.16 492.11 695.49 490.46 699.37 C 486.80 709.13 485.28 719.61 485.11 730.00 C 484.78 741.30 485.53 752.73 488.50 763.67 C 490.05 768.85 491.88 774.32 495.92 778.14 C 497.92 780.16 501.40 780.41 503.60 778.56 C 506.40 776.25 508.13 772.93 509.50 769.64 C 512.49 762.02 513.81 753.85 514.56 745.73 C 515.43 731.77 515.15 717.49 511.13 703.98 C 509.70 699.45 507.97 694.81 504.66 691.29 C 503.07 689.56 500.56 688.50 498.25 689.35 Z" />
</g>
<g id="#fffae1ff">
<path fill="#fffae1" opacity="1.00" d=" M 488.42 395.38 C 490.26 391.69 493.74 388.73 497.91 388.21 C 503.18 387.24 508.78 389.97 511.22 394.75 C 532.76 434.20 565.80 467.24 605.25 488.77 C 611.35 491.72 613.92 499.80 610.81 505.79 C 609.46 508.70 606.78 510.63 604.02 512.08 C 565.12 533.58 532.59 566.35 511.26 605.34 C 508.50 610.86 501.40 613.69 495.64 611.39 C 492.39 610.26 489.86 607.69 488.35 604.66 C 483.47 595.66 477.76 587.15 471.88 578.79 C 477.67 571.65 483.06 564.12 489.67 557.68 C 497.04 550.38 504.04 542.64 512.28 536.30 C 523.86 526.52 536.64 518.33 549.77 510.83 C 555.71 507.74 557.98 499.40 554.29 493.79 C 551.70 489.19 546.42 487.49 542.17 484.87 C 527.46 476.00 513.45 465.85 501.04 453.95 C 495.00 449.32 490.53 443.12 485.22 437.75 C 480.51 432.51 476.25 426.87 471.89 421.34 C 477.82 412.96 483.52 404.41 488.42 395.38 Z" />
</g>
<g id="#fffef6ff">
<path fill="#fffef6" opacity="1.00" d=" M 394.18 489.21 C 424.61 472.60 451.40 449.32 471.89 421.34 C 476.25 426.87 480.51 432.51 485.22 437.75 C 490.53 443.12 495.00 449.32 501.04 453.95 C 513.45 465.85 527.46 476.00 542.17 484.87 C 546.42 487.49 551.70 489.19 554.29 493.79 C 557.98 499.40 555.71 507.74 549.77 510.83 C 536.64 518.33 523.86 526.52 512.28 536.30 C 504.04 542.64 497.04 550.38 489.67 557.68 C 483.06 564.12 477.67 571.65 471.88 578.79 C 451.34 550.78 424.50 527.50 394.03 510.86 C 385.95 506.54 386.04 493.42 394.18 489.21 M 499.25 479.29 C 498.10 479.71 497.75 481.07 497.04 481.96 C 493.28 488.36 487.79 493.68 481.40 497.42 C 480.55 498.15 478.86 498.59 479.05 500.00 C 478.63 501.44 480.47 501.95 481.31 502.69 C 487.69 506.39 493.15 511.67 496.92 518.02 C 497.77 519.20 498.34 520.97 500.05 521.11 C 501.69 520.87 502.25 519.16 503.10 517.99 C 506.76 511.86 511.96 506.68 518.11 503.06 C 519.22 502.24 520.97 501.67 521.07 500.05 C 520.86 498.43 519.14 497.88 518.02 497.05 C 511.65 493.27 506.32 487.81 502.61 481.41 C 501.95 480.21 500.86 478.54 499.25 479.29 Z" />
</g>
</svg>
